<svg width="18" height="18" viewBox="0 0 18 18" fill="none" xmlns="http://www.w3.org/2000/svg">
<g clip-path="url(#clip0_1_1500)">
<path d="M7.5 16.5C10.8137 16.5 13.5 13.8137 13.5 10.5C13.5 7.18629 10.8137 4.5 7.5 4.5C4.18629 4.5 1.5 7.18629 1.5 10.5C1.5 11.4266 1.71006 12.3042 2.08515 13.0877C2.21407 13.357 2.25933 13.6621 2.18217 13.9505L1.93613 14.87C1.74222 15.5947 2.40526 16.2578 3.13001 16.0639L4.04954 15.8178C4.33795 15.7407 4.64303 15.7859 4.91232 15.9148C5.6958 16.2899 6.57337 16.5 7.5 16.5Z" stroke="white" stroke-width="1.5"/>
<path d="M13.5 10.8764C13.5499 10.8556 13.5993 10.834 13.6483 10.8116C13.9199 10.6876 14.2246 10.6412 14.513 10.7183L14.87 10.8139C15.5947 11.0078 16.2578 10.3447 16.0639 9.61999L15.9683 9.26296C15.8912 8.97455 15.9376 8.66986 16.0616 8.39829C16.3431 7.78199 16.5 7.09681 16.5 6.375C16.5 3.68261 14.3174 1.5 11.625 1.5C9.5983 1.5 7.86046 2.73674 7.125 4.4967" stroke="white" stroke-width="1.5"/>
<path fill-rule="evenodd" clip-rule="evenodd" d="M4.88883 10.5H4.89558Z" fill="white"/>
<path fill-rule="evenodd" clip-rule="evenodd" d="M7.50687 10.5H7.51362Z" fill="white"/>
<path fill-rule="evenodd" clip-rule="evenodd" d="M10.1251 10.5H10.1319Z" fill="white"/>
<path d="M4.88883 10.5H4.89558M7.50687 10.5H7.51362M10.1251 10.5H10.1319" stroke="white" stroke-width="2" stroke-linecap="round" stroke-linejoin="round"/>
</g>
<defs>
<clipPath id="clip0_1_1500">
<rect width="18" height="18" fill="white"/>
</clipPath>
</defs>
</svg>
