<svg width="18" height="18" viewBox="0 0 18 18" fill="none" xmlns="http://www.w3.org/2000/svg">
<path d="M15.0615 2.26355L15.0876 3.0131L15.0876 3.0131L15.0615 2.26355ZM12.375 2.61583L12.1599 1.89733L12.1599 1.89733L12.375 2.61583ZM10.2554 3.60231L9.8797 2.95318L9.8797 2.95318L10.2554 3.60231ZM2.9868 2.30641L2.94079 3.055L2.9868 2.30641ZM5.25 2.61583L5.44136 1.89065L5.44136 1.89065L5.25 2.61583ZM7.71169 3.65684L7.3611 4.31985L7.3611 4.31985L7.71169 3.65684ZM10.2207 15.0522L10.5735 15.714L10.5735 15.714L10.2207 15.0522ZM12.75 13.9753L12.5586 13.2501L12.5586 13.2501L12.75 13.9753ZM14.9889 13.6674L15.0357 14.4159L15.0357 14.4159L14.9889 13.6674ZM7.77931 15.0522L7.42651 15.714L7.42651 15.714L7.77931 15.0522ZM5.25 13.9753L5.44136 13.2501L5.44136 13.2501L5.25 13.9753ZM3.01114 13.6674L2.96433 14.4159L2.96433 14.4159L3.01114 13.6674ZM2.25 12.1079V3.7486H0.75V12.1079H2.25ZM17.25 12.1079V3.70014H15.75V12.1079H17.25ZM15.0354 1.51401C14.1792 1.54383 13.0428 1.63301 12.1599 1.89733L12.5901 3.33432C13.2775 3.12852 14.2509 3.04224 15.0876 3.0131L15.0354 1.51401ZM12.1599 1.89733C11.3918 2.12729 10.5368 2.57288 9.8797 2.95318L10.6311 4.25144C11.2661 3.88388 11.9968 3.51194 12.5901 3.33432L12.1599 1.89733ZM2.94079 3.055C3.66269 3.09937 4.46806 3.18516 5.05864 3.341L5.44136 1.89065C4.70218 1.69559 3.77548 1.60347 3.03281 1.55782L2.94079 3.055ZM5.05864 3.341C5.75846 3.52567 6.63083 3.9337 7.3611 4.31985L8.06228 2.99382C7.31333 2.5978 6.31536 2.12128 5.44136 1.89065L5.05864 3.341ZM10.5735 15.714C11.3146 15.3189 12.2192 14.891 12.9414 14.7004L12.5586 13.2501C11.6587 13.4876 10.626 13.9862 9.86789 14.3903L10.5735 15.714ZM12.9414 14.7004C13.5252 14.5464 14.3193 14.4607 15.0357 14.4159L14.942 12.9188C14.2043 12.965 13.2899 13.0571 12.5586 13.2501L12.9414 14.7004ZM8.13211 14.3903C7.37403 13.9862 6.34134 13.4876 5.44136 13.2501L5.05864 14.7004C5.78084 14.891 6.68537 15.3189 7.42651 15.714L8.13211 14.3903ZM5.44136 13.2501C4.7101 13.0571 3.79569 12.965 3.05796 12.9188L2.96433 14.4159C3.68073 14.4607 4.47484 14.5464 5.05864 14.7004L5.44136 13.2501ZM15.75 12.1079C15.75 12.5159 15.4082 12.8897 14.942 12.9188L15.0357 14.4159C16.2327 14.341 17.25 13.3664 17.25 12.1079H15.75ZM17.25 3.70014C17.25 2.50494 16.2962 1.47009 15.0354 1.51401L15.0876 3.0131C15.4344 3.00102 15.75 3.28666 15.75 3.70014H17.25ZM0.75 12.1079C0.75 13.3664 1.76727 14.341 2.96433 14.4159L3.05796 12.9188C2.5918 12.8897 2.25 12.5159 2.25 12.1079H0.75ZM9.86789 14.3903C9.32881 14.6777 8.67119 14.6777 8.13211 14.3903L7.42651 15.714C8.40662 16.2365 9.59338 16.2365 10.5735 15.714L9.86789 14.3903ZM9.8797 2.95318C9.32119 3.27641 8.62596 3.29189 8.06228 2.99382L7.3611 4.31985C8.3882 4.86296 9.6321 4.82957 10.6311 4.25144L9.8797 2.95318ZM2.25 3.7486C2.25 3.32595 2.58086 3.03288 2.94079 3.055L3.03281 1.55782C1.74859 1.4789 0.75 2.52398 0.75 3.7486H2.25Z" fill="white"/>
<path d="M9 4.125V15.375" stroke="white" stroke-width="1.5"/>
</svg>
